<svg width="2000" height="2230" viewBox="0 0 2000 2230" fill="none" xmlns="http://www.w3.org/2000/svg">
<g clip-path="url(#clip0_0_1)">
<path d="M1054.5 3.417C1040.65 9.601 1041.5 38 1055.53 38C1056.8 38 1057 44.173 1057 83.256V128.512L1026.5 159L996 189.488V134.852V80.217L998.423 79.609C1017.67 74.777 1012.31 43.156 992.218 43.022C972.484 42.89 966.037 71.56 984.117 79.049L987 80.243V139.378V198.514L959.673 225.827L932.347 253.14L915.173 235.475L898 217.811V189.014V160.217L900.423 159.609C919.936 154.711 914.159 122.886 893.782 123.022C874.338 123.152 868.273 151.657 886.117 159.049L889 160.243L889.033 190.871L889.066 221.5L910.497 243.32C927.49 260.621 932.261 264.954 933.532 264.242C935.633 263.067 1068 130.751 1068 129.826C1068 129.437 1067.55 128.84 1067 128.5C1066.36 128.103 1066 112.015 1066 83.519V39.155L1069.32 38.059C1081.19 34.143 1085.03 17.088 1076.19 7.627C1071.13 2.219 1061.41 0.332 1054.5 3.417ZM1296.5 124.89C1281.77 131.688 1281.53 153.007 1296.12 159.049L1299 160.243V212.621V265H1303.5C1306.69 265 1308 264.592 1308 263.602C1308 262.833 1320.84 249.139 1336.54 233.169L1365.08 204.134L1368.51 205.567C1386.4 213.044 1401.98 189.572 1388.7 175.132C1375.11 160.349 1349.74 176.095 1357.45 194.532L1358.9 198L1333.49 223.75L1308.08 249.5L1308.04 204.858L1308 160.217L1310.42 159.609C1314.14 158.675 1319.08 154.025 1321.12 149.541C1328.15 134.064 1311.89 117.786 1296.5 124.89ZM712.5 176.89C703.049 181.252 698.706 191.573 702.5 200.655L704 204.245L681.773 227.373C669.547 240.093 655.597 254.642 650.772 259.705L642 268.91V289.908V310.906L638.467 312.583C618.859 321.888 625.298 350.5 647 350.5C669.031 350.5 675.144 321.268 654.974 312.369L651 310.615V291.374V272.134L680.603 241.161L710.206 210.188L713.571 211.594C722.423 215.293 732.797 210.844 737.11 201.5C744.206 186.124 727.876 169.794 712.5 176.89ZM1103.5 177.89C1088.77 184.688 1088.53 206.007 1103.12 212.049L1106 213.243V276.378V339.514L1079.5 366L1053 392.486V321.851V251.217L1055.42 250.609C1074.79 245.748 1069.22 214 1049 214C1029.43 214 1023.17 242.615 1041.12 250.049L1044 251.243V321.864V392.486L1018 366.5L992 340.514V315.866V291.217L994.423 290.609C1013.82 285.74 1008.25 254.044 988 254.044C968.361 254.044 962.145 282.604 980.16 290.066L983.086 291.278L982.95 317.794L982.813 344.31L1015.27 376.764C1043.61 405.106 1047.96 409.086 1049.61 408.172C1054.71 405.347 1117.41 341.008 1116.22 339.822C1115.28 338.885 1115 323.967 1115 275.908V213.217L1117.42 212.609C1121.14 211.675 1126.08 207.025 1128.12 202.541C1135.15 187.064 1118.89 170.786 1103.5 177.89ZM578.5 250.89C563.771 257.688 563.533 279.007 578.117 285.049L581 286.243V353.54V420.837L535.842 466.918C511.005 492.263 490.53 513 490.342 513C488.274 513 490.291 496.144 492.423 495.609C511.788 490.748 506.218 459 486 459C466.427 459 460.17 487.615 478.117 495.049L481 496.243V510.921C481 535.627 480.37 535.868 519.262 496.25C536.404 478.788 559.345 455.474 570.242 444.442L590.053 424.384L590.014 355.304L589.974 286.223L592.41 285.612C596.141 284.676 601.081 280.03 603.12 275.541C610.151 260.064 593.893 243.786 578.5 250.89ZM643.094 320.331C633.084 323.767 633.194 338.322 643.255 341.694C652.59 344.823 660.827 336.602 657.701 327.274C655.656 321.173 649.359 318.179 643.094 320.331ZM1600.5 383.514C1584.71 392.002 1585.38 414.872 1601.61 421.042L1604 421.95V504.475V587H1608.5C1612.14 587 1613 586.662 1613 585.225C1613 584.233 1624.95 571.554 1640.09 556.475L1667.18 529.5L1667.04 510.371L1666.9 491.242L1669.37 490.621C1688.93 485.713 1683.2 453.885 1662.78 454.022C1643.34 454.152 1637.27 482.657 1655.12 490.049L1658 491.243V508.38V525.517L1635.5 548L1613 570.483V496.434V422.385L1616.97 420.631C1631.73 414.119 1633.27 394.452 1619.77 384.84C1615.56 381.836 1604.98 381.109 1600.5 383.514ZM1605.09 391.331C1595.08 394.767 1595.19 409.322 1605.25 412.694C1614.59 415.823 1622.83 407.602 1619.7 398.274C1617.66 392.173 1611.36 389.179 1605.09 391.331ZM485.5 571.89C470.771 578.688 470.533 600.007 485.117 606.049L488 607.243V658.373V709.503L493.633 715.501C505.627 728.274 506.216 729.239 504.507 733.329C498.194 748.439 514.556 764.007 529.5 757.11C552.115 746.672 538.447 715.306 514.426 722.518C512.745 723.023 510.9 721.514 504.676 714.537L497 705.932V656.575V607.217L499.423 606.609C503.142 605.675 508.084 601.025 510.12 596.541C517.151 581.064 500.893 564.786 485.5 571.89ZM987.5 660.89C972.771 667.688 972.533 689.007 987.117 695.049L990 696.243V745.711V795.18L1003 810L1016 824.82V843.801V862.783L1013.58 863.391C994.212 868.252 999.782 900 1020 900C1039.6 900 1045.83 871.384 1027.85 863.938L1024.93 862.73L1025.04 842.248C1025.15 821.962 1025.13 821.741 1022.75 819.133C1021.43 817.685 1015.55 811.024 1009.68 804.331L999 792.163V744.19V696.217L1001.42 695.609C1005.14 694.675 1010.08 690.025 1012.12 685.541C1019.15 670.064 1002.89 653.786 987.5 660.89ZM886.5 676.89C865.087 686.773 877.721 719.617 899.953 711.866L903.205 710.733L916.603 724.102L930 737.472V770.66V803.849L922.75 811.495L915.5 819.142L912.173 817.459C890.54 806.519 873.341 838.982 893.248 853.18C908.213 863.854 928.98 846.62 922.997 828.492L921.769 824.771L930.385 816.116L939 807.46V770.492V733.524L924.466 718.966L909.932 704.407L911.466 700.736C917.805 685.564 901.483 669.975 886.5 676.89ZM177.459 734.88C173.265 736.785 168.605 741.518 167.502 744.995C166.879 746.956 166.021 747 128.676 747H90.487L60.608 776.892L30.728 806.784L27.396 805.392C9.078 797.738 -6.576 823.181 8.132 836.702C22.522 849.931 46.048 834.41 38.605 816.596L37.209 813.257L48.105 802.396L59 791.534V816.146V840.757L56.117 841.951C38.037 849.44 44.484 878.11 64.218 877.978C84.31 877.844 89.673 846.223 70.423 841.391L68 840.783V811.655V782.527L81.236 769.263L94.472 756H130.628H166.783L167.391 758.423C170.408 770.443 188.112 774.671 197.868 765.702C213.154 751.65 196.363 726.293 177.459 734.88ZM122.5 783.89C107.771 790.688 107.533 812.007 122.117 818.049L125 819.243V833.8V848.358L141.087 863.929L157.173 879.5L155.587 883.218C149.287 897.98 164.926 913.654 179.768 907.452C202.281 898.046 190.199 865.167 166.805 872.176L162.879 873.353L148.439 858.939L134 844.526V831.871C134 819.315 134.019 819.212 136.423 818.609C140.142 817.675 145.084 813.025 147.12 808.541C154.151 793.064 137.893 776.786 122.5 783.89ZM435.5 817.514C419.706 826.002 420.383 848.872 436.611 855.042L439 855.95V895.217V934.483L460.635 956.135L482.27 977.787L481.135 981.043C474.814 999.174 497.644 1013.78 511.868 1000.7C526.768 987.005 510.884 961.754 492.262 969.535L488.588 971.07L468.294 950.794L448 930.518V893.452V856.385L451.974 854.631C466.735 848.119 468.274 828.452 454.775 818.84C450.556 815.836 439.977 815.109 435.5 817.514ZM440.094 825.331C430.084 828.767 430.194 843.322 440.255 846.694C449.59 849.823 457.827 841.602 454.701 832.274C452.656 826.173 446.359 823.179 440.094 825.331ZM900.094 825.331C890.084 828.767 890.194 843.322 900.255 846.694C909.59 849.823 917.827 841.602 914.701 832.274C912.656 826.173 906.359 823.179 900.094 825.331ZM731.5 867.89C711.766 876.998 720.235 906.57 741.733 903.623C746.2 903.011 746.248 903.037 754.608 910.627L763 918.246V950.002V981.757L760.117 982.951C742.17 990.385 748.427 1019 768 1019C788.218 1019 793.788 987.252 774.423 982.391L772 981.783V948.424V915.066L763.911 907.283C759.462 903.002 755.243 899.172 754.536 898.771C753.541 898.206 753.788 896.982 755.626 893.351C763.577 877.645 747.386 860.558 731.5 867.89ZM30.2 915.617C7.134 927.366 23.14 961.734 47.5 952.764C49.181 952.144 60.648 963.085 119.5 1021.46L189.5 1090.89L141.769 1090.94L94.038 1091L69.269 1067.88C54.492 1054.09 44.574 1044.1 44.684 1043.13C44.784 1042.23 45.415 1039.68 46.084 1037.46C50.862 1021.6 31.764 1007.95 17.886 1017.3C0.264 1029.17 12.338 1056.6 32.781 1051.14L37.139 1049.97L63.819 1074.94L90.5 1099.91L109 1099.99L127.5 1100.08L98.635 1128.6C77.234 1149.75 69.348 1156.95 68.135 1156.46C49.758 1149.03 33.851 1172.24 47.298 1186.87C61.239 1202.03 85.997 1186.03 78.311 1166.82L76.621 1162.6L108.427 1131.3L140.233 1100H169.38H198.528L246.99 1148.5L295.452 1197H371.664H447.875L472.517 1221.25L497.158 1245.5L495.579 1249.22C487.678 1267.82 512.98 1283.8 526.702 1268.87C540.526 1253.83 525.515 1232.51 505.347 1238.54C503.536 1239.08 499.086 1235.12 477.347 1213.62L451.5 1188.05L375.356 1188.03L299.212 1188L177.522 1066.75L55.833 945.5L57.528 942.173C65.535 926.459 46.064 907.537 30.2 915.617ZM1332.5 921.89C1317.77 928.688 1317.53 950.007 1332.12 956.049L1335 957.243V1020.86V1084.48L1319.91 1099.59L1304.82 1114.7L1301.16 1113.4C1281.9 1106.52 1265.72 1130.22 1279.19 1145.56C1294.16 1162.61 1320.73 1146.94 1313.41 1125.39L1311.82 1120.7L1327.95 1104.55L1344.08 1088.4L1344.02 1022.81L1343.96 957.227L1346.4 956.614C1350.14 955.676 1355.08 951.033 1357.12 946.541C1364.15 931.064 1347.89 914.786 1332.5 921.89ZM35.094 923.331C24.978 926.804 25.2 941.019 35.431 944.913C39.582 946.493 48 943.602 48 940.596C48 939.81 48.511 938.996 49.136 938.788C50.624 938.292 50.6 930.99 49.101 928.189C46.661 923.63 40.473 921.483 35.094 923.331ZM330.5 953.89C315.771 960.688 315.533 982.007 330.117 988.049L333 989.243V1009.4V1029.56L370.896 1067.41L408.791 1105.26L407.396 1108.6C399.739 1126.92 425.177 1142.58 438.702 1127.87C451.927 1113.48 436.41 1089.95 418.605 1097.39L415.274 1098.78L378.637 1062.14L342 1025.49V1007.35V989.217L344.423 988.609C348.142 987.675 353.084 983.025 355.12 978.541C362.151 963.064 345.893 946.786 330.5 953.89ZM1288.76 1122.56C1283.51 1125.41 1281.6 1132.39 1284.52 1138.03C1288.51 1145.76 1300.49 1145.76 1304.48 1138.03C1309.82 1127.72 1298.96 1117.03 1288.76 1122.56ZM1217.46 1147.88C1208.06 1152.15 1204.26 1161.55 1207.48 1172.5C1207.95 1174.09 1204.73 1177.83 1191.64 1190.88L1175.21 1207.27L1171.95 1206.13C1153.32 1199.64 1138.59 1224.34 1153.13 1237.7C1167.71 1251.1 1191.03 1235.38 1183.46 1217.26L1181.93 1213.58L1198.25 1197.25L1214.58 1180.93L1218.26 1182.46C1227.43 1186.3 1237.73 1181.99 1242.11 1172.5C1249.21 1157.11 1232.94 1140.85 1217.46 1147.88ZM646.5 1171.89C623.924 1182.31 637.464 1213.57 661.5 1206.52C663.126 1206.04 676.65 1219.09 733.729 1276.22L803.957 1346.5L802.522 1350.5C795.507 1370.06 819.036 1386.44 834.564 1372.81C852.556 1357.01 834.119 1329.68 812 1339.36C810.933 1339.83 790.209 1319.72 740.213 1269.72L669.926 1199.42L671.463 1195.74C677.805 1180.56 661.487 1164.97 646.5 1171.89ZM815.763 1347.56C810.515 1350.41 808.599 1357.39 811.517 1363.03C815.511 1370.76 827.489 1370.76 831.483 1363.03C836.817 1352.72 825.958 1342.03 815.763 1347.56Z" fill="#9E73C8"/>
<path d="M862.5 51.89C847.268 58.92 848.006 82.701 863.577 86.609L866 87.217V174.491V261.764L846.031 282.132L826.063 302.5L826.08 246.115L826.097 189.73L802.962 166.312C785.155 148.287 779.994 142.503 780.551 141.197C790.126 118.758 761.825 101.813 748.298 121.886C738.785 136.002 752.4 154.571 768.961 150.068L773.5 148.833L795.257 170.983L817.013 193.132L817.026 401.316L817.039 609.5L836.02 628.824L855 648.148V759.337V870.527L869 884.5L883 898.473L883.031 1009.49L883.063 1120.5L901.031 1139.26L919 1158.03V1694.01V2230H923.5H928L927.99 1692.25L927.98 1154.5L910.028 1136L892.075 1117.5L892.038 1007.98L892 898.468L934 856.512L976 814.556V772.278C976 737.506 975.761 730 974.653 730C973.913 730 964.913 720.99 954.653 709.979L936 689.957V651.087V612.217L938.423 611.609C957.788 606.748 952.218 575 932 575C912.427 575 906.17 603.615 924.117 611.049L927 612.243V653.621C927 676.411 927.391 695 927.87 695C928.348 695 937.348 704.232 947.87 715.516L967 736.032V773.261V810.491L927.26 850.24L887.52 889.99L875.76 878.26L864 866.531V756.53V646.529L876.072 634.428L888.145 622.326L888.049 578.413L887.954 534.5L933.227 489.272L978.5 444.044L982.5 445.478C1003.67 453.067 1019.48 426.044 1002.56 411.191C987.036 397.557 963.508 413.938 970.522 433.5L971.956 437.5L925.478 484.004L879 530.508V574.522V618.536L868.687 628.813L858.375 639.091L842.187 622.569L826 606.047V525.113V444.178L868.561 400.665L911.122 357.153L914.529 358.577C932.404 366.045 947.966 342.56 934.702 328.132C921.115 313.352 895.745 329.094 903.446 347.526L904.893 350.988L865.782 390.994C844.271 412.997 826.52 431 826.335 431C826.151 431 826 404.932 826 373.072V315.143L850.468 290.322L874.936 265.5L874.968 176.371L875 87.243L877.883 86.049C881.708 84.464 885.537 80.354 887.447 75.782C893.803 60.565 877.511 44.962 862.5 51.89ZM983.763 416.565C976.228 420.653 976.35 432.544 983.967 436.483C989.709 439.452 996.681 437.452 999.483 432.033C1004.82 421.718 993.958 411.033 983.763 416.565ZM1841.5 650.89C1831.86 655.34 1827.77 665.381 1831.65 675.08L1833.3 679.201L1756.15 756.35L1679 833.498V806.858V780.217L1681.42 779.609C1700.94 774.711 1695.16 742.886 1674.78 743.022C1655.34 743.152 1649.27 771.657 1667.12 779.049L1670 780.243V811.377V842.511L1626 886.477L1582 930.444V952.301V974.158L1561.98 954.855C1547.68 941.071 1542.15 935.116 1542.62 934.026C1552.21 911.797 1523.74 894.937 1510.3 914.886C1500.71 929.113 1514.26 947.388 1531.18 943.052L1536 941.815L1559 964.065L1582 986.315V1019.12V1051.92L1503.54 1131.21L1425.09 1210.5L1425.04 1254.68L1425 1298.85L1278.36 1447.18C1197.7 1528.75 1116.7 1610.6 1098.36 1629.06L1065 1662.62V1946.31V2230H1069.5H1074V1948.1V1666.19L1253.95 1484.35L1433.91 1302.5L1433.95 1258.56L1434 1214.63L1442.75 1205.56C1454.53 1193.35 1603.87 1042.08 1641.46 1004.29L1671.5 974.085L1675.54 975.193C1682.99 977.238 1691.06 974.007 1695.7 967.114C1706.84 950.595 1686.4 930.165 1669.89 941.298C1661.18 947.162 1659.42 954.457 1663.63 967.129C1664.01 968.283 1653.51 979.508 1627.62 1005.63L1591.08 1042.5L1591.04 988.507L1591 934.514L1616.24 909.257L1641.48 884L1706.99 883.999L1772.5 883.998L1780 876.992C1785.62 871.741 1788 870.126 1789.5 870.545C1806.88 875.407 1821.19 860.845 1814.11 845.5C1803.92 823.419 1770.56 837.371 1779.59 859.938L1781.18 863.916L1775.34 869.422L1769.5 874.927L1710 874.964L1650.51 875L1696 829.5L1741.49 784L1777.5 783.995L1813.5 783.99L1829.26 768.382C1840.81 756.947 1845.49 752.925 1846.76 753.343C1857.15 756.75 1861.3 756.62 1867.11 752.702C1878.69 744.901 1878.69 729.099 1867.11 721.298C1853.25 711.957 1834.31 725.466 1838.84 741.46L1839.99 745.5L1824.91 760.25L1809.83 775H1780.17H1750.51L1795.5 729.991C1826.74 698.742 1840.96 685.168 1842 685.59C1851.02 689.242 1861.97 684.682 1866.12 675.541C1873.15 660.064 1856.89 643.786 1841.5 650.89ZM1272.5 729.89C1257.77 736.688 1257.53 758.007 1272.12 764.049L1275 765.243L1275.05 803.371L1275.1 841.5L1297.02 865.5C1309.07 878.7 1318.84 889.771 1318.72 890.102C1318.03 891.998 1256.45 957 1255.34 957C1254.23 957 1254 979.3 1254 1089.46V1221.93L1216.37 1260.46C1195.68 1281.66 1178.35 1299 1177.87 1299C1177.38 1299 1177 1341.13 1177 1395.44V1491.88L1107.41 1564.19C1069.14 1603.96 1033.59 1640.73 1028.41 1645.9L1019 1655.3V1942.65V2230H1023.5H1028V1944.56V1659.12L1106.95 1577.31L1185.9 1495.5L1185.95 1399.83L1186 1304.16L1224.46 1264.83L1262.92 1225.5L1262.96 1154.46L1263 1083.42L1279.25 1067.43C1288.19 1058.63 1297.64 1049.53 1300.25 1047.2L1305 1042.96V1018.09V993.217L1307.42 992.609C1326.79 987.748 1321.22 956 1301 956C1281.43 956 1275.17 984.615 1293.12 992.049L1296 993.243V1015.88V1038.52L1280.24 1054.26C1271.57 1062.92 1264.14 1070 1263.74 1070C1263.33 1070 1263 1045.94 1263 1016.53V963.064L1295.67 928.032C1313.64 908.764 1328.94 893 1329.67 893C1330.75 893 1331 887.24 1331 862.608V832.217L1333.42 831.609C1352.94 826.711 1347.16 794.886 1326.78 795.022C1307.34 795.152 1301.27 823.657 1319.12 831.049L1322 832.243V855.621C1322 868.48 1321.82 879 1321.6 879C1321.38 879 1312.83 869.794 1302.6 858.541L1284 838.083V801.65V765.217L1286.42 764.609C1290.14 763.675 1295.08 759.025 1297.12 754.541C1304.15 739.064 1287.89 722.786 1272.5 729.89ZM614.5 796.89C599.771 803.688 599.533 825.007 614.117 831.049L617 832.243V880.25V928.258L613.369 932.379C611.372 934.645 600.797 945.524 589.869 956.554L570 976.608V1070.1V1163.59L591.405 1185.05C603.178 1196.85 672.928 1267.63 746.405 1342.34L880 1478.18V1854.09V2230H884.5H889V1851C889 1531.56 888.786 1472 887.636 1472C886.489 1472 602.127 1184.12 587.647 1168.3L582.794 1162.99L595.397 1149.63L608 1136.26V1093.32V1050.38L611.974 1048.63C632.147 1039.73 626.034 1010.5 604 1010.5C582.295 1010.5 575.856 1039.11 595.467 1048.42L599 1050.09V1091.63V1133.16L590.32 1142.33C585.545 1147.37 581.045 1152.16 580.32 1152.96C579.226 1154.18 579 1139.53 579 1067.32V980.209L602.534 956.176L626.067 932.143L626.019 882.184L625.97 832.224L628.408 831.612C640.649 828.54 644.576 809.396 634.831 800.298C629.234 795.072 621.315 793.744 614.5 796.89ZM1135.5 824.89C1120.77 831.688 1120.53 853.007 1135.12 859.049L1138 860.243L1137.95 945.871L1137.91 1031.5L1121.45 1014.65L1105 997.801V974.593V951.385L1108.97 949.631C1129.14 940.732 1123.03 911.5 1101 911.5C1079.3 911.5 1072.86 940.112 1092.47 949.417L1096 951.094V976.207V1001.32L1115.57 1021.17L1135.15 1041.03L1132.09 1044.76C1130.42 1046.82 1115.09 1062.67 1098.03 1080L1067.01 1111.5L1067 1215.8L1067 1320.1L1034.54 1354.3L1002.09 1388.5L1002.04 1477.82L1002 1567.15L988.889 1581.82C981.678 1589.9 974.028 1598.22 971.889 1600.32L968 1604.15V1917.07V2230H972.5H977V1919.05V1608.1L993.96 1589.3L1010.92 1570.5L1010.96 1481.27L1011 1392.05L1038.14 1363.27C1053.07 1347.45 1067.71 1332 1070.68 1328.94L1076.07 1323.37L1076.02 1219.28L1075.96 1115.2L1109.55 1080.85C1128.02 1061.96 1144 1045.71 1145.07 1044.75C1146.95 1043.04 1147 1040.68 1147 951.608V860.217L1149.42 859.609C1153.14 858.675 1158.08 854.025 1160.12 849.541C1167.15 834.064 1150.89 817.786 1135.5 824.89ZM1097.09 920.331C1087.08 923.767 1087.19 938.322 1097.26 941.694C1106.59 944.823 1114.83 936.602 1111.7 927.274C1109.66 921.173 1103.36 918.179 1097.09 920.331ZM600.094 1019.33C590.084 1022.77 590.194 1037.32 600.255 1040.69C609.59 1043.82 617.827 1035.6 614.701 1026.27C612.656 1020.17 606.359 1017.18 600.094 1019.33ZM178.5 1207.89C163.095 1215 163.537 1235.9 179.232 1242.45C188.537 1246.34 201.316 1240.56 203.609 1231.42L204.217 1229L303.858 1229.04L403.5 1229.08L391.216 1241.04L378.933 1253H258.088H137.243L136.049 1250.12C128.657 1232.27 100.152 1238.34 100.022 1257.78C99.886 1278.16 131.711 1283.94 136.609 1264.42L137.217 1262H259.865H382.512L398.261 1246.47L414.01 1230.94L437.989 1253.72L461.967 1276.5L319.908 1276.75L177.849 1277.01L165.196 1288.52C156.67 1296.28 152.048 1299.84 151.022 1299.42C135.742 1293.22 120.001 1309.57 126.89 1324.5C137.159 1346.75 170.424 1332.59 161.323 1309.85L159.645 1305.66L170.073 1295.86L180.5 1286.07L326.5 1286.07L472.5 1286.08L489.5 1302.56L506.5 1319.04L557.982 1319L609.464 1318.97L726.232 1435.73L843 1552.5V1891.25V2230H847.5H852V1889.25V1548.5L732.647 1429.15L613.294 1309.8L561.695 1309.94L510.096 1310.09L463.548 1265.91C437.947 1241.6 417 1221.33 417 1220.86C417 1220.39 369.264 1220 310.621 1220H204.243L203.049 1217.12C199.308 1208.09 187.606 1203.69 178.5 1207.89ZM1944.5 1275.5C1934.13 1279.17 1928.88 1290.68 1932.59 1301.62L1934.18 1306.3L1910.85 1329.65L1887.52 1353H1747.73H1607.95L1599.73 1360.79C1595.2 1365.08 1578.81 1380.6 1563.29 1395.29L1535.08 1422L1443.29 1422.05L1351.5 1422.09L1221.19 1552L1090.87 1681.92L1090.92 1707.21C1091.1 1812.59 1093.19 2200.76 1093.64 2213.75L1094.21 2230H1098.22H1102.22L1101.55 2134.75C1101.18 2082.36 1100.45 1960.07 1099.93 1863L1098.99 1686.5L1227.11 1558.75L1355.23 1431L1446.86 1430.96L1538.5 1430.91L1572 1398.94C1590.43 1381.35 1606.07 1366.69 1606.76 1366.37C1607.84 1365.86 1622.75 1379.42 1650.63 1406.3L1656.76 1412.21L1706.74 1412.06L1756.72 1411.91L1757.93 1414.83C1765.44 1432.96 1794.11 1426.55 1793.98 1406.78C1793.84 1386.69 1762.22 1381.33 1757.39 1400.58L1756.78 1403H1708.29H1659.79L1641.15 1385.34C1630.89 1375.62 1621.16 1366.4 1619.52 1364.84L1616.54 1362H1751.21H1885.88L1906.49 1381.75C1920.13 1394.81 1926.93 1402 1926.6 1403C1922.4 1415.41 1924.22 1422.86 1932.89 1428.7C1949.4 1439.84 1969.84 1419.41 1958.7 1402.89C1953.99 1395.9 1946.03 1392.78 1938.22 1394.86L1933.86 1396.03L1914.41 1377.3L1894.95 1358.56L1918.07 1335.43L1941.19 1312.3L1944.84 1313.61C1952.44 1316.32 1959.68 1314.59 1965.64 1308.62C1980.98 1293.28 1965 1268.25 1944.5 1275.5ZM1945.76 1284.56C1940.51 1287.41 1938.6 1294.39 1941.52 1300.03C1945.51 1307.76 1957.49 1307.76 1961.48 1300.03C1966.82 1289.72 1955.96 1279.03 1945.76 1284.56Z" fill="#5DA6D8"/>
<path d="M1230.5 89.89C1215.77 96.688 1215.53 118.007 1230.12 124.049L1233 125.243V206.364V287.486L1206.5 261L1180 234.514V203.865V173.217L1182.42 172.609C1201.79 167.748 1196.22 136 1176 136C1156.41 136 1150.17 164.616 1168.14 172.058L1171.05 173.261L1170.98 205.881L1170.91 238.5L1201.97 269.492L1233.03 300.484L1232.98 363.451L1232.94 426.417L1246.77 440.458C1254.38 448.181 1270.37 464.512 1282.3 476.749L1304 498.998V580.456V661.914L1267.53 698.707L1231.07 735.5L1231.03 784.513L1231 833.525L1216 848.5L1201 863.475V767.093V670.71L1211.23 660.105C1216.86 654.272 1224.55 646.302 1228.31 642.393L1235.17 635.286L1235.05 593.852L1234.92 552.418L1238.94 550.648C1259.14 541.734 1253.06 512.5 1231 512.5C1209.3 512.5 1202.86 541.112 1222.47 550.417L1226 552.094L1225.95 592.297L1225.9 632.5L1211.38 647.5L1196.87 662.5L1177.93 643.152L1159 623.803V503.01V382.217L1161.42 381.609C1180.82 376.74 1175.25 345.044 1155 345.044C1135.39 345.044 1129.14 373.602 1147.12 381.049L1150 382.243L1150.02 504.871L1150.05 627.5L1171.02 648.765L1192 670.029V890.033V1110.04L1162.37 1141.02C1146.07 1158.06 1132.35 1172 1131.87 1172C1131.38 1172 1131 1223.97 1131 1290.48V1408.96L1099.04 1441.73L1067.09 1474.5L1067.04 1531.27L1067 1588.05L1039.36 1616.52C1024.16 1632.19 1011.34 1645 1010.86 1645C1010.38 1645 1010 1773.9 1010 1937.5V2230H1014.5H1019V1940V1650.01L1036.7 1631.75C1046.43 1621.71 1059.3 1608.5 1065.29 1602.39L1076.19 1591.28L1076.05 1534.74L1075.91 1478.19L1107.91 1445.35L1139.91 1412.5L1139.96 1294.78L1140 1177.06L1163.15 1152.78C1175.88 1139.42 1189.62 1125.1 1193.68 1120.95L1201.06 1113.39L1201.02 994.971L1200.97 876.55L1220.57 856.925L1240.18 837.301L1240.05 788.289L1239.92 739.278L1276.48 702.222L1313.05 665.166L1313.01 512.64L1312.97 360.115L1337.74 334.015C1357.86 312.803 1362.87 308.026 1364.5 308.509C1388.92 315.772 1402.16 283.322 1378.77 273.548C1363.82 267.304 1348.52 282.756 1354.6 297.948L1356.19 301.936L1330.35 329.084L1304.5 356.233L1304 421.175L1303.5 486.118L1272.75 454.49L1242 422.861V274.039V125.217L1244.42 124.609C1248.14 123.675 1253.08 119.025 1255.12 114.541C1262.15 99.064 1245.89 82.786 1230.5 89.89ZM769.5 220.89C754.771 227.688 754.533 249.007 769.117 255.049L772 256.243V330.073V403.902L752.041 424.201L732.082 444.5L732.041 392.858L732 341.217L734.423 340.609C753.82 335.74 748.252 304.044 728 304.044C708.386 304.044 702.142 332.603 720.127 340.052L723.018 341.25L722.991 495.729L722.963 650.207L743.481 671.149L764 692.091V776.546C764 846.459 764.231 861 765.34 861C766.077 861 776.712 871.664 788.975 884.697L811.27 908.395L810.635 919.447C810.286 925.526 809.976 969.569 809.947 1017.32L809.893 1104.14L859.446 1155.16L909 1206.17V1718.08V2230H913.5H918V1715.5C918 1420.27 917.625 1201 917.121 1201C916.637 1201 894.073 1178.19 866.979 1150.32L817.716 1099.63L818.348 1088.57C818.695 1082.48 818.994 1038.37 819.011 990.549L819.043 903.597L813.212 897.549C775.482 858.415 774.76 857.504 778.602 853.924C780.034 852.591 787.503 844.871 795.2 836.769L809.195 822.037L809.053 788.138L808.912 754.239L811.379 753.62C830.667 748.779 825.344 717.157 805.218 717.022C785.484 716.89 779.037 745.56 797.117 753.049L800 754.243L799.949 786.871L799.898 819.5L786.449 833.451L773 847.402V701.748V556.094L776.533 554.417C796.144 545.111 789.705 516.5 768 516.5C745.966 516.5 739.853 545.731 760.026 554.631L764 556.385L763.954 617.942L763.908 679.5L747.954 663.142L732 646.784V551.985V457.186L756.548 432.153L781.097 407.119L781.025 331.674L780.954 256.228L783.4 255.615C787.14 254.676 792.079 250.035 794.12 245.541C801.151 230.064 784.893 213.786 769.5 220.89ZM1553.46 322.88C1544.06 327.15 1540.22 336.636 1543.5 347.514C1544.06 349.375 1531.22 365.058 1519.88 376.369L1517 379.237L1516.95 581.869L1516.9 784.5L1497.14 805.747C1486.28 817.432 1475.95 828.398 1474.19 830.115L1471 833.237L1470.96 926.869L1470.92 1020.5L1451.96 1001.19L1433 981.876V937.131V892.385L1436.97 890.631C1457.14 881.732 1451.03 852.5 1429 852.5C1407.27 852.5 1400.86 881.114 1420.51 890.438L1424.09 892.136L1423.95 938.586L1423.81 985.036L1447.41 1009.09L1471 1033.15V1065.54V1097.94L1416.91 1153.72C1387.16 1184.4 1357.46 1214.83 1350.91 1221.34L1339 1233.19V1298.04V1362.88L1208.9 1495.19C1137.34 1567.96 1069.16 1637.15 1057.4 1648.95L1036 1670.41V1950.2V2230H1040.5H1045V1952.08V1674.17L1175.12 1541.83C1246.69 1469.05 1314.89 1399.8 1326.68 1387.94L1348.11 1366.37L1348.03 1301.78L1347.95 1237.19L1413.93 1169.34L1479.91 1101.5L1479.96 1005.5L1480.01 909.5L1575.59 813.25C1628.16 760.313 1671.8 717 1672.58 717C1673.36 717 1674 716.436 1674 715.747C1674 715.058 1700.67 687.821 1733.28 655.222L1792.56 595.95L1795.83 597.091C1818.07 604.844 1833.1 575.617 1814.26 561.248C1799.12 549.702 1775.9 569.069 1784.42 586.139L1786.06 589.431L1769.03 606.462L1752 623.493V559.355V495.217L1754.42 494.609C1773.82 489.74 1768.25 458.044 1748 458.044C1728.39 458.044 1722.14 486.602 1740.12 494.049L1743 495.243V563.89V632.538L1708.55 667.519L1674.11 702.5L1674.05 651.858L1674 601.217L1676.42 600.609C1695.79 595.748 1690.22 564 1670 564C1650.43 564 1644.17 592.615 1662.12 600.049L1665 601.243V656.378V711.514L1638.43 738.007L1611.86 764.5L1590.43 742.653L1569 720.805V666.511V612.217L1571.42 611.609C1590.79 606.748 1585.22 575 1565 575C1545.43 575 1539.17 603.615 1557.12 611.049L1560 612.243V668.18V724.117L1582.5 747.088C1594.87 759.722 1605 770.384 1605 770.782C1605 771.18 1576.87 799.628 1542.5 834L1480 896.494V866.765V837.036L1503.03 812.158L1526.07 787.279L1526.02 585.112L1525.97 382.944L1538.1 369.472C1544.77 362.063 1550.35 356 1550.49 356C1550.64 356 1552.37 356.675 1554.35 357.5C1563.43 361.294 1573.75 356.951 1578.11 347.5C1585.21 332.107 1568.94 315.849 1553.46 322.88ZM479.459 371.88C470.006 376.173 466.234 385.593 469.539 396.654C470.148 398.689 391.419 481.028 387.671 482.276C386.795 482.568 386.374 502.937 386 563.154L385.5 643.643L365.515 664.321C354.524 675.695 345.411 685 345.265 685C345.119 685 345 638.512 345 581.692V478.385L348.974 476.631C369.147 467.731 363.034 438.5 341 438.5C319.295 438.5 312.856 467.111 332.467 476.417L336 478.094V551.79V625.487L307.5 597L279 568.513V497.365V426.217L281.423 425.609C300.82 420.74 295.252 389.044 275 389.044C255.393 389.044 249.141 417.602 267.117 425.049L270 426.243V499.337V572.431L303.014 605.499L336.028 638.567L335.985 701.824L335.943 765.081L339.221 767.791C341.025 769.281 354.087 781.711 368.25 795.413L394 820.326L393.968 892.913L393.935 965.5L373.512 944.5L353.089 923.5L353.038 886.5L352.986 849.5L311.51 807.5L270.034 765.5L270.017 711.358L270 657.217L272.423 656.609C291.82 651.74 286.252 620.044 266 620.044C246.393 620.044 240.141 648.602 258.117 656.049L261 657.243V706.675V756.107L238.541 733.303L216.083 710.5L216.041 680.75C216.019 664.388 215.615 651 215.145 651C214.675 651 205.9 641.793 195.645 630.54L177 610.079V561.148V512.217L179.423 511.609C198.788 506.748 193.218 475 173 475C153.427 475 147.17 503.615 165.117 511.049L168 512.243L168.035 562.871L168.07 613.5L187.554 634.746L207.038 655.992L206.769 678.319L206.5 700.645L142.799 635.828L79.097 571.011L80.549 567.538C88.043 549.602 64.596 534 50.132 547.298C35.397 560.844 51.086 586.258 69.448 578.586L72.832 577.172L121.166 626.336L169.5 675.5L130 675.79L90.5 676.081L72.784 658.081L55.068 640.081L56.534 636.573C60.387 627.351 55.593 616.653 45.768 612.548C30.944 606.354 15.354 621.944 21.548 636.768C25.635 646.55 36.352 651.387 45.484 647.571L48.904 646.142L65.978 663.651L83.052 681.16L79.096 685.83C76.92 688.399 69.524 696.078 62.66 702.895L50.181 715.29L46.07 713.645C26.959 705.998 11.026 730.816 26.132 744.702C40.78 758.169 63.963 742.244 56.521 723.827C56.016 722.576 60.437 717.47 74.058 703.577L92.272 685H135.529H178.787L261.394 769.085L344 853.17L343.953 883.835L343.907 914.5L315.905 886.096C295.248 865.141 288.084 857.273 288.59 856.096C298.174 833.78 269.776 816.886 256.298 836.886C246.803 850.976 260.364 869.527 276.923 865.098L281.423 863.894L309.001 891.697C352.575 935.628 484.78 1069.71 492.766 1078.08L500 1085.65L500.05 1129.58L500.1 1173.5L679.55 1355.34C806.484 1483.96 859.001 1537.81 859.003 1539.34C859.004 1540.53 859.003 1696.41 859 1885.75L858.994 2230H863.497H868V1881.79V1533.59L842.129 1507.54C827.9 1493.22 747.125 1411.37 662.629 1325.66L509 1169.81V1128.95V1088.09L527.475 1069.29L545.949 1050.5L545.975 989.782L546 929.063L562.71 911.532C571.901 901.889 580.001 894 580.71 894C582.273 894 582.199 895.897 582.008 860.877L581.852 832.254L584.349 831.627C603.81 826.743 598.309 795.044 578 795.044C558.393 795.044 552.141 823.602 570.117 831.049L573 832.243V860.2V888.157L557.765 904.083C549.386 912.843 542.197 919.895 541.789 919.755C541.382 919.615 535.638 913.738 529.024 906.696L517 893.892V864.067V834.243L519.883 833.049C537.83 825.615 531.573 797 512 797C491.782 797 486.212 828.748 505.577 833.609L508 834.217L508.006 865.858L508.012 897.5L522.472 912.5L536.931 927.5L536.965 987.176L537 1046.85L521.494 1062.68L505.989 1078.5L454.527 1026.5L403.065 974.5L403.032 898.864L403 823.228L422.567 804.112L442.134 784.996L442.035 703.614L441.936 622.233L444.391 621.617C463.784 616.749 458.243 585 438 585C418.427 585 412.17 613.615 430.117 621.049L433 622.243V701.961V781.679L417.069 797.339C397.731 816.348 403.915 817.788 371.987 786.841L345 760.681V729.372V698.063L360.25 682.274C368.637 673.591 379.887 661.901 385.25 656.297L395 646.108V567.152V488.195L435.639 446.597C457.99 423.719 476.385 405 476.516 405C476.648 405 478.371 405.675 480.346 406.5C489.427 410.294 499.748 405.951 504.11 396.5C511.214 381.107 494.936 364.849 479.459 371.88ZM337.094 447.331C327.084 450.767 327.194 465.322 337.255 468.694C346.59 471.823 354.827 463.602 351.701 454.274C349.656 448.173 343.359 445.179 337.094 447.331ZM1088.5 457.89C1073.77 464.688 1073.53 486.007 1088.12 492.049L1091 493.243V507.621C1091 515.53 1091.39 522 1091.86 522C1092.34 522 1099.99 529.878 1108.86 539.506L1125 557.012V662.854V768.696L1103.44 789.505L1081.87 810.315L1082.07 794.672L1082.28 779.029L1057.14 751.535L1032 724.04V719.114V714.188L1053 693.735L1074 673.282V634.249V595.217L1076.42 594.609C1095.79 589.748 1090.22 558 1070 558C1050.43 558 1044.17 586.615 1062.12 594.049L1065 595.243V632.383V669.523L1049.24 685.262C1040.57 693.918 1033.15 701 1032.74 701C1032.33 701 1032 654.699 1032 598.108V495.217L1034.42 494.609C1053.67 489.777 1048.31 458.156 1028.22 458.022C1008.48 457.89 1002.04 486.56 1020.12 494.049L1023 495.243V612.121C1023 676.405 1023.38 729 1023.85 729C1024.31 729 1035.56 740.905 1048.85 755.456L1073 781.911V840.493V899.075L1058.04 914.787L1043.07 930.5L1043.04 1068.84L1043 1207.18L1027.25 1224.79C1018.59 1234.47 1009.7 1244.22 1007.5 1246.45L1003.5 1250.5L1003.22 1296.04L1002.94 1341.58L984.471 1360.03L966 1378.48V1411.06V1443.64L950.051 1458.57L934.102 1473.5L934.051 1851.75L934 2230H938.5H943V1853.68V1477.35L959.176 1462.05L975.352 1446.75L975.095 1414.71L974.838 1382.68L993.496 1364L1012.15 1345.33L1012.04 1300.15L1011.93 1254.97L1031.93 1232.74L1051.94 1210.5L1051.97 1072.2L1052 933.91L1061.21 924.205C1066.27 918.867 1073.05 911.768 1076.25 908.429L1082.09 902.359L1082.02 862.352L1081.96 822.345L1104.73 800.422C1117.25 788.365 1128.96 777.292 1130.75 775.815L1134 773.129V663.468V553.806L1117 535.413L1100 517.02V505.119C1100 493.358 1100.03 493.21 1102.42 492.609C1106.14 491.675 1111.08 487.025 1113.12 482.541C1120.15 467.064 1103.89 450.786 1088.5 457.89ZM1227.09 521.331C1217.08 524.767 1217.19 539.322 1227.25 542.694C1236.59 545.823 1244.83 537.602 1241.7 528.274C1239.66 522.173 1233.36 519.179 1227.09 521.331ZM764.094 525.331C754.084 528.767 754.194 543.322 764.255 546.694C773.59 549.823 781.827 541.602 778.701 532.274C776.656 526.173 770.359 523.179 764.094 525.331ZM1799.09 567.331C1789.08 570.767 1789.19 585.322 1799.25 588.694C1808.59 591.823 1816.83 583.602 1813.7 574.274C1811.66 568.173 1805.36 565.179 1799.09 567.331ZM1425.09 861.331C1415.08 864.767 1415.19 879.322 1425.25 882.694C1434.59 885.823 1442.83 877.602 1439.7 868.274C1437.66 862.173 1431.36 859.179 1425.09 861.331ZM1955.5 1187.89C1945.82 1192.36 1941.77 1202.38 1945.68 1212.17L1947.37 1216.37L1927.13 1236.19L1906.9 1256H1799.86H1692.81L1709.06 1239L1725.3 1222H1779.64H1833.97L1835.53 1225.74C1842.11 1241.46 1862.99 1241.92 1870.11 1226.5C1880.03 1205 1847.31 1189.24 1836.38 1210.25L1834.95 1213H1777.87H1720.79L1718.66 1215.75C1717.48 1217.26 1708.47 1226.94 1698.62 1237.25L1680.72 1256L1644.61 1256.04L1608.5 1256.07L1563.69 1300.54L1518.87 1345H1465.94C1435.6 1345 1413 1345.38 1413 1345.89C1413 1346.38 1338.41 1420.69 1247.25 1511.03C1156.09 1601.36 1081.54 1675.66 1081.6 1676.14C1081.66 1676.61 1081.77 1801.43 1081.85 1953.5L1082 2230H1086H1090V1954.61V1679.23L1254.12 1516.6L1418.24 1353.97L1470.19 1354.02L1522.15 1354.07L1567.17 1309.53L1612.18 1265H1679.41H1746.64L1768.92 1286.75L1791.19 1308.5L1789.94 1313.04C1785.41 1329.58 1804 1343.22 1818.11 1333.7C1838.27 1320.12 1821.26 1291.92 1798.69 1301.49C1797.23 1302.11 1793.18 1298.58 1778.19 1283.62L1759.5 1264.97L1834.85 1265.05L1910.21 1265.12L1932.13 1243.46C1948.97 1226.82 1954.45 1221.96 1955.77 1222.5C1965.04 1226.24 1975.92 1221.79 1980.12 1212.54C1987.15 1197.06 1970.89 1180.79 1955.5 1187.89ZM220.5 1323.89C198.61 1333.99 212.514 1367.75 234.74 1358.46L238.416 1356.93L266.96 1385.46L295.503 1413.99L399.687 1414.24L503.871 1414.5L479.912 1436.75L455.953 1459H390.054H324.155L323.059 1455.68C318.025 1440.43 293.784 1440.17 288.064 1455.31C282.105 1471.08 297.731 1486.15 313.298 1479.65C316.895 1478.15 323 1471.74 323 1469.46C323 1468.19 331.994 1468 391.445 1468H459.89L464.195 1463.56C466.563 1461.12 479.485 1448.97 492.91 1436.56L517.321 1414H603.544H689.766L761.473 1486.67C800.912 1526.64 833.589 1560.42 834.09 1561.74C834.63 1563.16 835 1699.44 835 1897.06V2230H839H843V1893.3V1556.61L813.208 1526.55C796.822 1510.02 763.104 1475.91 738.28 1450.75L693.145 1405H643.17H593.196L567.598 1380.39C553.519 1366.85 542 1355.38 542 1354.89C542 1354.38 507.117 1354 459.608 1354H377.217L376.609 1351.58C371.748 1332.21 340 1337.78 340 1358C340 1377.57 368.615 1383.83 376.049 1365.88L377.243 1363H457.027H536.812L558.46 1383.75L580.109 1404.5L439.815 1404.75L299.52 1405.01L272.224 1377.75C250.251 1355.81 245.043 1350.11 245.516 1348.5C250.569 1331.31 235.833 1316.81 220.5 1323.89Z" fill="#EC9C54"/>
<path fill-rule="evenodd" clip-rule="evenodd" d="M1483.26 278.466C1467.54 271.895 1467.08 251.008 1482.5 243.89C1504 233.966 1519.77 266.687 1498.75 277.621L1496 279.051V422.838V566.625L1477.47 585.051L1458.95 603.478L1459.03 655.804L1459.1 708.131L1427.04 741.626L1394.98 775.12L1395.01 944.153L1395.03 1113.19L1357.52 1151.18L1320 1189.18L1319.96 1247.34L1319.91 1305.5L1283.92 1342.85L1247.93 1380.2L1248.04 1414.63L1248.15 1449.07L1141.57 1557.62L1035 1666.18V1948.09V2230H1031.5H1028L1028.04 1945.25L1028.09 1660.5L1133.54 1553.17L1239 1445.84V1410.39C1239 1380.66 1239.23 1374.85 1240.42 1374.39C1241.2 1374.09 1257.4 1357.67 1276.42 1337.91L1311 1301.97L1311.04 1243.74L1311.07 1185.5L1348.54 1147.69L1386 1109.89V941.985V774.08L1364.93 752.595L1343.86 731.11L1343.96 693.19L1344.06 655.269L1341.15 654.062C1323.14 646.604 1329.37 618.044 1349 618.044C1369.25 618.044 1374.82 649.74 1355.42 654.609L1353 655.217V691.537V727.856L1371.61 746.928C1381.56 757.127 1385.55 763.139 1389.97 763.475C1395.46 763.892 1401.63 755.515 1420.8 735.469L1450 704.938V654.224V603.51L1414.36 567.863L1378.73 532.216L1375.4 533.608C1357.59 541.048 1342.07 517.518 1355.3 503.132C1368.82 488.426 1394.26 504.081 1386.61 522.396L1385.22 525.727L1419.87 560.366L1454.52 595.006L1470.76 578.742L1487 562.478V512.361V462.244L1442.46 417.188L1397.93 372.132L1394.5 373.566C1376.6 381.044 1361.02 357.574 1374.3 343.132C1387.88 328.357 1413.26 344.09 1405.56 362.514L1404.12 365.964L1445.51 407.732L1486.91 449.5L1486.95 364.763L1487 280.027L1483.26 278.466ZM656.25 417.621C642.34 410.384 643.075 390.548 657.5 383.89C672.876 376.794 689.206 393.124 682.11 408.5C679.872 413.35 676.709 416.388 671.736 418.466L668 420.027V594.801V769.576L658.531 779.538L649.061 789.5L649.079 952L649.096 1114.5L666.048 1131.88L683 1149.26V1124.13C683 1104.09 683.265 1099 684.309 1099C692.782 1099 704.239 1074 697.117 1071.05C679.17 1063.61 685.427 1035 705 1035C725.218 1035 730.788 1066.75 711.423 1071.61C709.147 1072.18 709 1072.64 709 1079.24V1086.27L700.5 1095.53L692 1104.79V1131.65V1158.51L722.5 1189L753 1219.49V1137.8V1056.1L726.443 1028.62L699.886 1001.13L699.97 954.183L700.054 907.231L689.777 898.093C681.979 891.159 679.018 889.094 677.5 889.53C657.33 895.324 642.531 874.107 656.298 859.132C669.975 844.254 695.247 860.112 687.482 878.698C685.742 882.861 686.185 883.574 695.25 891.194L700 895.186V823.214V751.243L697.117 750.049C679.141 742.602 685.393 714.044 705 714.044C725.252 714.044 730.82 745.74 711.423 750.609L709 751.217V874.585V997.954L734.637 1024.48C748.737 1039.07 760.662 1051 761.137 1051C761.612 1051 762 1055.54 762 1061.08V1071.15L764.709 1067.93C778.502 1051.54 804.968 1068.06 796.12 1087.54C794.084 1092.03 789.142 1096.68 785.423 1097.61L783 1098.22V1138.87V1179.52L803 1199.5L823 1219.48V1199.86V1180.24L820.117 1179.05C802.141 1171.6 808.393 1143.04 828 1143.04C848.252 1143.04 853.82 1174.74 834.423 1179.61L832 1180.22V1239.86V1299.51L870.5 1338L909 1376.49V1803.25V2230H904.5H900V1805.1V1380.19L770.889 1250.1C699.879 1178.54 641.373 1120 640.878 1120C640.347 1120 639.992 1052.43 640.015 955.395L640.053 790.789L631.543 781.645C626.862 776.615 604.59 753.825 582.048 731L541.065 689.5L541.032 638.797L541 588.094L537.467 586.417C517.904 577.134 524.289 548.5 545.922 548.5C568.025 548.5 574.194 577.711 553.974 586.631L550 588.385V633.367V678.349L552.75 675.959C554.263 674.645 564.837 664.333 576.25 653.044L597 632.518V587.38V542.243L594.117 541.049C576.17 533.615 582.427 505 602 505C622.245 505 627.784 536.749 608.388 541.617L605.931 542.234L606.039 589.163L606.148 636.092L579.41 662.32L552.671 688.548L598.481 735.278L644.29 782.009L651.598 774.254L658.906 766.5L658.953 592.776L659 419.051L656.25 417.621ZM186.156 833.204C169.475 827.389 168.453 804.138 184.5 795.514C188.977 793.109 199.556 793.836 203.775 796.84C217.043 806.288 215.824 825.636 201.533 832.417L198 834.094V844.48V854.865L220.563 877.845L243.125 900.824L243.033 942.764L242.94 984.704L325.065 1065.85L407.19 1147H436.849H466.507L663.003 1343.75L859.5 1540.5L859.247 1885.25L858.994 2230H855.503H852.011L851.756 1887.5L851.5 1545L657 1350.47L462.5 1155.95L433.092 1156.06L403.683 1156.17L375.085 1127.58L346.487 1099H310.96H275.433L268.457 1092.25C264.62 1088.54 256.256 1080.66 249.869 1074.75L238.258 1063.99L234.661 1065.5C216.106 1073.25 200.273 1047.96 215.132 1034.3C229.486 1021.1 253.05 1036.58 245.632 1054.34L244.264 1057.61L261.658 1073.81L279.051 1090L307.776 1089.96L336.5 1089.93L287.732 1041.44L238.964 992.943L212.811 993.034L186.658 993.125L175.579 982.315C169.486 976.369 158.398 965.52 150.94 958.205L137.38 944.906L132.901 946.104C116.363 950.527 102.81 931.965 112.298 917.886C120.099 906.31 135.901 906.31 143.702 917.886C147.585 923.647 147.741 928.137 144.404 938.006C144.066 939.004 151.672 947.001 166.993 961.756L190.091 984H212.045H234V944.023V904.047L211.5 881.154L189 858.26V846.228V834.196L186.156 833.204ZM961.399 906.607C939.456 915.775 925.881 881.868 947.5 871.89C962.28 865.069 978.812 880.548 972.607 895.399L971.213 898.733L989.607 917.107L1008 935.48L1007.98 1016.49L1007.96 1097.5L989.979 1115.76L972 1134.02V1176.73V1219.43L977.4 1214.1L982.8 1208.77L981.4 1205.42C975.19 1190.55 991.714 1175.07 1006.5 1181.89C1016.01 1186.28 1020.3 1196.57 1016.45 1205.77C1012.32 1215.67 1001.65 1220.39 992.27 1216.47L988.605 1214.94L980.284 1223.21L971.964 1231.49L972.021 1276.93L972.078 1322.36L967.218 1327.43C964.545 1330.22 955.978 1339.34 948.179 1347.69L934 1362.89V1796.44V2230H931H928L928.012 1793.25L928.025 1356.5L945.512 1337.82L963 1319.13V1226.19V1133.24L942.337 1113.87C930.972 1103.22 920.959 1094.58 920.087 1094.68C919.214 1094.78 916.64 1095.17 914.367 1095.55C896.912 1098.44 886.011 1075.36 899.132 1063.3C913.87 1049.75 936.805 1065.45 929.38 1084.01L927.761 1088.06L938.63 1098.27C944.609 1103.88 952.538 1111.37 956.25 1114.9L963 1121.33V1065.26V1009.19L943.46 989.162L923.92 969.135L920.492 970.568C902.598 978.044 887.023 954.571 900.298 940.132C913.906 925.33 939.253 941.098 931.537 959.566L930.074 963.067L951.037 984.397L972 1005.73L972.046 1063.61L972.092 1121.5L985.546 1107.64L999 1093.78V1016.65V939.521L981.867 922.367L964.734 905.213L961.399 906.607ZM1840.52 900.038C1835.05 889.456 1840.45 875.411 1851.5 871.503C1872.01 864.248 1887.98 889.285 1872.63 904.632C1867.2 910.061 1861.64 911.701 1854 910.131L1848.5 909.001L1824.5 933.001L1800.51 957H1846.72H1892.94L1922.37 929.38L1951.8 901.759L1950.4 898.412C1944.19 883.552 1960.72 868.067 1975.5 874.89C1985.01 879.277 1989.3 889.571 1985.45 898.768C1981.34 908.62 1970.65 913.388 1961.37 909.511L1957.81 908.023L1933.66 930.708C1920.37 943.185 1906.51 956.23 1902.85 959.697L1896.19 966H1843.68H1791.17L1717.08 1040.71L1643 1115.42V1140.71V1166H1684.86H1726.72L1757.36 1133.45L1788 1100.89V1079.56V1058.22L1785.58 1057.61C1766.21 1052.75 1771.78 1021 1792 1021C1811.57 1021 1817.83 1049.61 1799.88 1057.05L1797 1058.24V1082.12C1797 1095.25 1796.61 1106 1796.13 1106C1795.65 1106 1785.43 1116.46 1773.41 1129.25C1761.38 1142.04 1748.65 1155.54 1745.11 1159.25L1738.67 1166H1791.78H1844.89L1876.88 1134.96C1907.38 1105.37 1908.84 1103.78 1908.45 1100.71C1908.23 1098.95 1907.76 1081.45 1907.41 1061.82L1906.77 1026.15L1904 1025C1886.03 1017.55 1892.57 988.89 1912.22 989.022C1932.31 989.156 1937.67 1020.78 1918.42 1025.61L1916 1026.22L1916.14 1045.36C1916.21 1055.89 1916.55 1071.52 1916.89 1080.1L1917.5 1095.7L1940.41 1073.48L1963.32 1051.25L1961.66 1047.1C1952.57 1024.4 1985.86 1010.29 1996.11 1032.5C2002.8 1046.99 1988.22 1063.16 1973.19 1057.92L1970.09 1056.83L1910.04 1115.06C1877.02 1147.08 1850 1173.67 1850 1174.14C1850 1174.61 1803.29 1175 1746.05 1175H1642.11L1596.3 1219.08C1571.11 1243.33 1546.3 1267.4 1541.17 1272.58L1531.85 1282H1502.67H1473.49L1277.57 1478.25L1081.66 1674.5L1081.83 1952.25L1082.01 2230H1078.01H1074V1949.24V1668.49L1270.5 1472C1378.58 1363.93 1467 1274.94 1467 1274.25C1467 1273.28 1473.62 1273 1497 1273H1527V1231.5C1527 1197.54 1527.24 1190 1528.34 1190C1529.07 1190 1542.8 1176.05 1558.84 1159L1588 1128.01V1113.13V1098.24L1585.12 1097.05C1567.17 1089.61 1573.43 1061 1593 1061C1613.26 1061 1618.78 1092.75 1599.36 1097.62L1596.88 1098.25L1597.07 1114.6L1597.27 1130.95L1566.63 1163.51L1536 1196.07V1230.68V1265.3L1549.26 1252.4C1556.55 1245.3 1578.6 1224.01 1598.26 1205.08L1634 1170.66L1634.04 1141.08L1634.08 1111.5L1738.03 1007.18L1841.98 902.867L1840.52 900.038ZM1156 974.998C1142.88 969.566 1143.19 946.907 1156.46 940.88C1171.95 933.842 1188.16 950.048 1181.12 965.541C1179.08 970.025 1174.14 974.675 1170.42 975.609L1168 976.217V1029.11C1168 1058.2 1167.62 1082 1167.15 1082C1166.68 1082 1154.76 1094.38 1140.65 1109.52L1115 1137.05V1259.02C1115 1328.38 1114.62 1381 1114.12 1381C1113.64 1381 1092.26 1402.85 1066.62 1429.55L1020 1478.1V1529.05C1020 1557.07 1019.62 1580 1019.16 1580C1018.69 1580 1010.59 1588.33 1001.16 1598.51L984 1617.01V1923.51V2230H980.5H977L977.023 1920.75L977.047 1611.5L994.023 1593.25L1011 1575V1524C1011 1495.39 1011.39 1473 1011.88 1473C1012.36 1473 1033.74 1451.15 1059.38 1424.45L1106 1375.9V1254.55V1133.19L1110.89 1128.35C1113.58 1125.68 1125.5 1113.04 1137.39 1100.25L1159 1077.01V1026.62V976.243L1156 974.998ZM762.052 1226.19C762.052 1226.19 762.062 1185.06 762.052 1158.71C762.042 1131.46 762 1088.93 762 1088.93L764.995 1092.34C766.643 1094.22 769.343 1096.31 770.995 1097L774 1098.24V1140.92V1183.59L798.5 1208.02L823 1232.45V1261.41V1290.37L792.552 1259.44L762.052 1226.19ZM1837.5 1455.01C1832.05 1444.46 1837.47 1430.41 1848.5 1426.5C1869.01 1419.25 1884.98 1444.28 1869.63 1459.63C1864.23 1465.03 1858.64 1466.7 1851.12 1465.16C1844.73 1463.84 1844.05 1464.22 1834 1474.51L1827.5 1481.16L1849.84 1503.08L1872.18 1525H1910.97H1949.76L1950.95 1522.12C1958.39 1504.17 1987 1510.43 1987 1530C1987 1550.22 1955.25 1555.79 1950.39 1536.42L1949.78 1534L1909.14 1533.98L1868.5 1533.97L1844.22 1509.98L1819.94 1486H1740.48H1661.02L1654.43 1492.25L1647.84 1498.5L1668.98 1518.75L1690.12 1539H1745.83H1801.55L1813.41 1552.58C1823.35 1563.98 1825.6 1566.06 1827.38 1565.53C1851.88 1558.2 1865.25 1590.64 1841.77 1600.45C1826.96 1606.64 1811.39 1590.89 1817.46 1575.87C1817.93 1574.72 1814.83 1570.44 1806.81 1561.19L1795.5 1548.14L1741 1548.03L1686.5 1547.93L1663.26 1525.46L1640.03 1503H1545.27H1450.52L1457.01 1509.39C1460.58 1512.91 1472.64 1524.61 1483.81 1535.39L1504.13 1555L1545.31 1555L1586.5 1555.01L1595.54 1563.75C1600.51 1568.56 1612.04 1579.59 1621.16 1588.25L1637.75 1604.01L1641.34 1602.5C1659.39 1594.96 1675.06 1618.34 1661.7 1632.87C1648.21 1647.55 1622.74 1631.93 1630.37 1613.65L1631.74 1610.37L1607.33 1587.18L1582.92 1564H1540.93C1504.78 1564 1498.86 1563.79 1498.37 1562.52C1498.06 1561.71 1484.3 1547.98 1467.8 1532.02L1437.8 1503H1368.51H1299.23L1203.62 1599.6L1108 1696.19V1963.1V2230H1105.12H1102.24L1101.57 2138.75C1101.2 2088.56 1100.51 1967.64 1100.04 1870.03L1099.18 1692.57L1176.84 1614.27C1219.55 1571.21 1263.5 1526.58 1274.5 1515.1L1294.5 1494.21L1411.99 1494.11L1529.48 1494L1545.63 1477.87L1561.79 1461.74L1560.39 1458.4C1552.95 1440.59 1576.48 1425.07 1590.87 1438.3C1605.58 1451.82 1589.92 1477.26 1571.6 1469.6L1568.26 1468.21L1555.4 1481.1L1542.53 1494H1591.45H1640.37L1648.87 1485.5L1657.37 1477H1738.16H1818.95L1828.95 1467.4C1838.95 1457.81 1838.95 1457.8 1837.5 1455.01ZM77.205 1469.15C64.063 1459.79 65.131 1440.78 79.2 1433.62C92.764 1426.71 107.485 1436.86 107.518 1453.13L107.535 1461.92L118.169 1471.46L128.804 1481H267.549H406.295L416.897 1490.75L427.5 1500.51L519.269 1500.16L611.038 1499.82L601.27 1490.66C595.898 1485.62 588.981 1479.13 585.899 1476.24L580.296 1470.98L576.68 1472.49C558.108 1480.25 542.263 1454.97 557.132 1441.3C571.467 1428.12 595.051 1443.58 587.646 1461.3L586.293 1464.54L605.222 1482.29L624.152 1500.04L697.826 1499.41L771.5 1498.78L803.25 1530.67L835 1562.57V1896.29V2230H831.663H828.326L827.664 2185.75C827.3 2161.41 827.002 2012.35 827.001 1854.49L827 1567.49L796.75 1537.48L766.5 1507.47L719.246 1507.8L671.993 1508.14L631.996 1546.69C609.998 1567.89 592 1585.65 592 1586.14C592 1586.66 574.869 1587.02 551.359 1586.98L510.719 1586.91L508.991 1590.71C500.694 1608.93 472.888 1602.8 473.022 1582.78C473.152 1563.34 501.657 1557.27 509.049 1575.12L510.243 1578L544.371 1578.01C563.142 1578.02 580.092 1578.29 582.037 1578.61C584.981 1579.09 661.492 1509.19 658.717 1508.55C658.598 1508.52 606.435 1508.64 542.8 1508.81L427.099 1509.11L403.3 1532.02L379.5 1554.92L352.489 1554.96L325.478 1555L308.704 1571.8L291.931 1588.59L293.465 1592.26C301.246 1610.88 275.995 1626.77 262.298 1611.87C249.038 1597.45 264.595 1573.95 282.463 1581.42L285.861 1582.84L299.181 1569.17L312.5 1555.5L263.686 1555.24L214.873 1554.98L204.686 1564.16C199.084 1569.21 194.382 1573.42 194.237 1573.52C194.092 1573.61 194.655 1575.32 195.487 1577.31C203.037 1595.38 179.678 1611.07 165.132 1597.7C150.431 1584.19 166.319 1558.5 184.5 1566.39C187.721 1567.79 191.06 1565.41 206.407 1550.75L211.381 1546H293.73H376.079L397.531 1525.34L418.983 1504.69L411.242 1497.38L403.5 1490.08L264.629 1490.06L125.759 1490.04L113.454 1479L101.149 1467.95L97.048 1470.09C91.544 1472.96 81.918 1472.5 77.205 1469.15Z" fill="#7BB59A"/>
</g>
</svg>
